<svg aria-hidden="true" style="position:absolute;width:0;height:0;overflow:hidden" xmlns="http://www.w3.org/2000/svg">
    <defs>
        <symbol id="icon-vector-btn" viewBox="0 0 19 32">
            <path fill="none" stroke="#d41443" style="stroke: var(--color1, #d41443)" stroke-linejoin="round" stroke-linecap="round" stroke-miterlimit="4" stroke-width="6.4" d="M3.2 3.2l12.8 12.8-12.8 12.8"></path>
        </symbol>
        <symbol id="icon-burger" viewBox="0 0 46 32">
            <path d="M0 2.286h45.714M0 16h45.714M0 29.714h45.714"/>
        </symbol>
        <symbol id="icon-close" viewBox="0 0 32 32">
            <path d="m2.519 2 26.963 28M2 29.481 30 2.518"/>
        </symbol>
        <symbol id="icon-quotes" viewBox="0 0 43 32">
            <path d="M32.014 0c1.929 0 3.75.52 5.464 1.561s3.107 2.537 4.179 4.488C42.686 8 43.2 10.298 43.2 12.943s-.643 5.225-1.929 7.74c-.429.911-1.2 2.081-2.314 3.512a63.368 63.368 0 0 1-3.214 3.707L31.693 32 28.8 27.187a22.03 22.03 0 0 0 5.336-4.683c1.543-1.821 2.314-3.491 2.314-5.008 0-.78-.171-1.409-.514-1.886a8.359 8.359 0 0 1-5.014 1.626c-1.329 0-2.593-.412-3.793-1.236a8.555 8.555 0 0 1-2.957-3.122c-.771-1.258-1.157-2.558-1.157-3.902 0-1.518.45-2.97 1.35-4.358a10.222 10.222 0 0 1 3.407-3.382C29.143.412 30.558 0 32.015 0zM8.936 0c1.929 0 3.75.52 5.464 1.561s3.107 2.537 4.179 4.488c1.029 1.951 1.543 4.249 1.543 6.894 0 1.864-.236 3.534-.707 5.008-.471 1.518-1.286 3.1-2.443 4.748-1.114 1.561-2.164 2.862-3.15 3.902-.986 1.084-2.7 2.884-5.143 5.398l-2.893-4.813a22.03 22.03 0 0 0 5.336-4.683c1.543-1.821 2.314-3.491 2.314-5.008 0-.78-.171-1.409-.514-1.886a8.359 8.359 0 0 1-5.014 1.626c-1.329 0-2.593-.412-3.793-1.236a8.555 8.555 0 0 1-2.957-3.122C.387 11.619.001 10.319.001 8.975c0-1.518.429-2.97 1.286-4.358S3.28 2.102 4.694 1.235C6.065.411 7.48-.001 8.937-.001z"/>
        </symbol>
        <symbol id="icon-arrow-button" viewBox="0 0 19 32">
            <path  stroke-linejoin="round" stroke-linecap="round" stroke-miterlimit="4" stroke-width="6.4" d="M3.2 3.2l12.8 12.8-12.8 12.8"></path>
        </symbol>
        <symbol id="icon-github" viewBox="0 0 32 32">
            <path d="M16 .941C7.729.941.941 7.729.941 16c0 7.058 4.953 13.47 11.529 15.059v-4.982c-.652.143-1.251.147-1.915-.049-.89-.263-1.613-.856-2.15-1.76-.342-.577-.949-1.203-1.581-1.157l-.155-1.758c1.368-.117 2.551.833 3.254 2.013.312.525.671.832 1.132.969.446.131.924.068 1.481-.129.14-1.116.651-1.534 1.037-2.122v-.001c-3.922-.585-5.486-2.666-6.106-4.308-.822-2.181-.381-4.905 1.073-6.627.028-.034.079-.121.06-.183-.667-2.014.146-3.679.176-3.856.769.228.894-.229 3.342 1.258l.423.254c.177.105.121.045.298.032a12.77 12.77 0 0 1 3.16-.445 12.84 12.84 0 0 1 3.204.456l.137.014c-.012-.002.037-.009.12-.058 3.057-1.852 2.947-1.247 3.767-1.513.03.177.831 1.87.172 3.858-.089.274 2.65 2.782 1.132 6.809-.62 1.643-2.184 3.724-6.106 4.309v.001c.503.766 1.107 1.174 1.104 2.755v6.219c6.577-1.589 11.529-8.001 11.529-15.059C31.058 7.728 24.271.94 15.999.94z" />
        </symbol>
        <symbol id="icon-telegram" viewBox="0 0 40 32">
            <path d="m16.205 20.751-.635 8.339c.909 0 1.302-.364 1.774-.802l4.261-3.801 8.829 6.035c1.619.842 2.76.399 3.197-1.39l5.797-25.346c.514-2.234-.866-3.108-2.443-2.56L2.92 13.398c-2.325.842-2.29 2.052-.395 2.6l8.709 2.528L31.463 6.712c.952-.588 1.818-.263 1.106.326L16.205 20.751z" />
        </symbol>
        <symbol id="icon-facebook" viewBox="0 0 16 32">
            <path d="M14.266 15.97H10.09v15.39H3.763V15.97H.754v-5.409h3.009v-3.5c0-2.503 1.182-6.422 6.384-6.422l4.687.02v5.25h-3.401c-.558 0-1.342.28-1.342 1.474v3.183h4.729l-.553 5.403z" />
        </symbol>
        <!-- Іконки для модального вікна -->
        <symbol id="icon-modal-close" viewBox="0 0 32 32">
            <path d="M26.667 7.303l-1.97-1.97-7.808 7.808-7.808-7.808-1.97 1.97 7.808 7.808-7.808 7.808 1.97 1.97 7.808-7.808 7.808 7.808 1.97-1.97-7.808-7.808 7.808-7.808z"></path>
        </symbol>
        <symbol id="icon-email-modal" viewBox="0 0 32 32">
            <path d="M26.667 5.333h-21.333c-1.467 0-2.652 1.2-2.652 2.667l-0.014 16c0 1.467 1.2 2.667 2.667 2.667h21.333c1.467 0 2.667-1.2 2.667-2.667v-16c0-1.467-1.2-2.667-2.667-2.667zM26.133 11.001l-9.426 5.892c-0.201 0.126-0.446 0.2-0.708 0.2s-0.506-0.075-0.713-0.204l0.006 0.003-9.426-5.892c-0.336-0.201-0.557-0.562-0.557-0.975 0-0.625 0.507-1.132 1.132-1.132 0.233 0 0.449 0.070 0.629 0.19l-0.004-0.003 8.933 5.586 8.933-5.588c0.176-0.118 0.392-0.188 0.624-0.188 0.625 0 1.132 0.507 1.132 1.132 0 0.413-0.221 0.775-0.552 0.972l-0.005 0.003z"></path>
        </symbol>
        <symbol id="icon-phone" viewBox="0 0 32 32">
            <path d="M24.882 19.774l-3.268-0.373c-0.090-0.011-0.194-0.018-0.3-0.018-0.707 0-1.347 0.287-1.81 0.75l-2.368 2.368c-3.669-1.894-6.585-4.81-8.427-8.372l-0.051-0.108 2.382-2.377c0.463-0.463 0.75-1.103 0.75-1.81 0-0.106-0.006-0.21-0.019-0.312l0.001 0.012-0.373-3.243c-0.155-1.287-1.24-2.276-2.557-2.276-0.001 0-0.002 0-0.003 0h-2.226c-1.454 0-2.663 1.209-2.574 2.661 0.683 10.987 9.47 19.762 20.444 20.444 1.452 0.089 2.663-1.12 2.663-2.574v-2.226c0-0.004 0-0.008 0-0.012 0-1.308-0.985-2.386-2.253-2.532l-0.012-0.001z"></path>
        </symbol>
        <symbol id="icon-person" viewBox="0 0 32 32">
            <path d="M16 16c2.946 0 5.333-2.388 5.333-5.333s-2.388-5.333-5.333-5.333v0c-2.946 0-5.333 2.388-5.333 5.333s2.388 5.333 5.333 5.333v0zM16 18.667c-3.561 0-10.667 1.787-10.667 5.333v1.333c0 0.732 0.599 1.333 1.333 1.333h18.667c0.732 0 1.333-0.601 1.333-1.333v-1.333c0-3.547-7.108-5.333-10.667-5.333z"></path>
        </symbol>
        <symbol id="icon-icon-send-1" viewBox="0 0 32 32">
            <path d="M32 0l-32 18 10.227 3.787 15.773-14.787-11.997 16.187 0.009 0.003-0.012-0.003v8.813l5.735-6.691 7.267 2.691 4.999-28z"></path>
        </symbol>
    </defs>
</svg>